<?xml version="1.0" standalone="no"?>
<!DOCTYPE svg PUBLIC "-//W3C//DTD SVG 20010904//EN"
 "http://www.w3.org/TR/2001/REC-SVG-20010904/DTD/svg10.dtd">
<svg version="1.0" xmlns="http://www.w3.org/2000/svg"
 width="224.000000pt" height="225.000000pt" viewBox="0 0 224.000000 225.000000"
 preserveAspectRatio="xMidYMid meet">

<g transform="translate(0.000000,225.000000) scale(0.100000,-0.100000)"
fill="#ffffff" stroke="none">
<path d="M1067 2238 c-15 -7 -150 -133 -300 -279 l-272 -266 -204 -7 c-225 -8
-243 -13 -276 -76 -22 -43 -22 -927 0 -970 32 -62 50 -67 275 -75 l205 -7 273
-267 c306 -298 318 -307 398 -276 29 11 53 29 69 53 l25 37 0 1019 c0 1004 0
1019 -20 1051 -11 18 -31 40 -44 49 -34 22 -96 28 -129 14z"/>
<path d="M1570 1538 c-13 -5 -57 -43 -97 -84 -52 -54 -73 -83 -73 -101 0 -19
25 -51 95 -122 52 -54 95 -102 95 -107 0 -5 -43 -52 -95 -104 -121 -120 -121
-123 -21 -225 81 -82 110 -98 141 -83 11 6 62 51 113 101 l92 92 98 -98 c116
-116 131 -120 204 -54 66 59 118 125 118 149 0 13 -37 59 -95 117 -52 54 -95
101 -95 106 0 5 43 52 95 106 58 58 95 104 95 117 0 52 -163 209 -204 196 -11
-4 -65 -48 -119 -98 l-98 -91 -97 92 c-53 51 -104 94 -112 96 -9 2 -27 0 -40
-5z"/>
</g>
</svg>
