<?xml version="1.0" standalone="no"?>
<!DOCTYPE svg PUBLIC "-//W3C//DTD SVG 20010904//EN"
 "http://www.w3.org/TR/2001/REC-SVG-20010904/DTD/svg10.dtd">
<svg version="1.0" xmlns="http://www.w3.org/2000/svg"
 width="920.000000pt" height="920.000000pt" viewBox="0 0 920.000000 920.000000"
 preserveAspectRatio="xMidYMid meet">

<g transform="translate(0.000000,920.000000) scale(0.100000,-0.100000)"
fill="#ffffff" stroke="none">
<path d="M4401 8408 c-29 -4 -76 -20 -102 -35 -34 -18 -256 -231 -706 -677
-362 -358 -777 -769 -923 -913 l-265 -263 -647 0 c-626 0 -649 -1 -702 -20
-76 -29 -139 -88 -178 -168 l-33 -67 -3 -1635 c-2 -1207 0 -1649 8 -1690 23
-106 106 -202 207 -240 52 -19 78 -20 701 -20 l647 0 270 -268 c149 -146 564
-557 923 -913 441 -437 668 -654 700 -672 202 -110 448 11 492 242 16 86 13
6998 -3 7077 -16 76 -55 143 -110 187 -68 55 -90 64 -202 81 -11 2 -44 -1 -74
-6z"/>
<path d="M6801 7700 c-91 -19 -186 -98 -230 -190 -22 -46 -26 -69 -26 -140 0
-73 4 -93 27 -140 15 -30 53 -82 84 -115 139 -149 229 -254 308 -358 369 -487
613 -1085 690 -1692 19 -144 38 -477 31 -543 -2 -26 -7 -101 -10 -167 -30
-583 -241 -1212 -579 -1725 -128 -194 -220 -308 -440 -545 -31 -33 -69 -85
-84 -115 -23 -47 -27 -67 -27 -140 0 -71 4 -94 26 -140 34 -70 94 -131 166
-166 47 -23 70 -28 137 -28 72 -1 89 3 148 32 55 27 87 54 177 150 469 502
794 1067 986 1716 121 412 170 755 170 1206 0 277 -8 394 -41 620 -127 877
-525 1688 -1148 2338 -120 125 -233 169 -365 142z"/>
<path d="M5749 6640 c-103 -18 -207 -100 -251 -198 -16 -35 -22 -68 -22 -132
-1 -113 26 -169 142 -293 295 -316 473 -689 543 -1137 17 -110 17 -438 0 -555
-64 -441 -247 -825 -543 -1142 -47 -50 -95 -111 -107 -135 -83 -172 -18 -366
151 -455 47 -25 63 -28 148 -28 127 0 167 20 283 138 314 320 557 756 671
1204 64 254 86 424 86 684 0 341 -43 602 -150 912 -129 376 -346 729 -616
1003 -71 73 -100 95 -144 111 -69 26 -132 33 -191 23z"/>
</g>
</svg>
