<?xml version="1.0" standalone="no"?>
<!DOCTYPE svg PUBLIC "-//W3C//DTD SVG 20010904//EN"
 "http://www.w3.org/TR/2001/REC-SVG-20010904/DTD/svg10.dtd">
<svg version="1.0" xmlns="http://www.w3.org/2000/svg"
 width="512.000000pt" height="512.000000pt" viewBox="0 0 512.000000 512.000000"
 preserveAspectRatio="xMidYMid meet">

<g transform="translate(0.000000,512.000000) scale(0.100000,-0.100000)"
fill="#ffffff" stroke="none">
<path d="M2292 5105 c-57 -16 -144 -68 -178 -106 -73 -82 -95 -147 -103 -303
l-6 -128 -115 -39 c-63 -21 -169 -65 -235 -97 l-120 -59 -85 80 c-101 95 -180
137 -274 144 -70 6 -149 -9 -211 -40 -50 -24 -357 -327 -392 -384 -50 -85 -65
-193 -39 -288 21 -79 43 -114 133 -206 l84 -86 -61 -124 c-33 -68 -78 -176
-99 -239 l-39 -115 -128 -6 c-139 -5 -188 -18 -255 -65 -85 -59 -141 -146
-160 -250 -14 -78 -6 -476 11 -524 20 -59 82 -142 135 -182 75 -56 122 -70
269 -77 l128 -6 38 -111 c20 -62 64 -168 98 -238 l61 -125 -84 -90 c-46 -49
-92 -107 -103 -128 -49 -96 -53 -208 -12 -318 20 -53 42 -80 192 -231 177
-179 221 -212 317 -234 136 -32 256 10 391 137 l84 80 131 -63 c71 -35 177
-78 235 -97 l105 -35 6 -129 c4 -80 12 -145 23 -173 39 -107 149 -206 261
-235 84 -21 446 -21 530 0 112 29 222 128 261 235 11 28 19 93 23 173 l6 129
105 35 c58 19 164 62 235 97 l131 63 84 -80 c135 -127 255 -169 391 -137 96
22 140 55 317 234 150 151 172 178 192 231 41 110 37 221 -13 320 -11 22 -58
79 -104 126 l-84 86 61 124 c33 68 78 176 99 239 l39 115 128 6 c139 5 188 18
255 65 85 59 141 146 160 250 14 78 6 476 -11 524 -20 59 -82 142 -135 182
-75 56 -122 70 -269 77 l-128 6 -38 111 c-20 62 -64 167 -97 236 l-60 124 74
78 c84 89 119 144 139 218 25 97 11 204 -39 288 -29 50 -313 335 -367 370 -88
56 -196 73 -295 46 -80 -21 -114 -43 -207 -134 l-87 -84 -63 34 c-88 48 -227
107 -328 138 l-85 27 -5 134 c-5 127 -7 138 -38 201 -41 83 -119 158 -200 189
-53 22 -74 23 -292 26 -182 2 -247 -1 -288 -12z m458 -540 c4 -155 8 -196 23
-222 28 -53 74 -79 184 -107 191 -49 333 -107 498 -206 93 -56 146 -72 195
-61 55 12 67 22 195 150 66 67 126 121 135 121 19 0 260 -240 260 -260 0 -8
-54 -69 -121 -135 -128 -128 -138 -140 -150 -195 -11 -47 4 -98 52 -176 97
-160 174 -342 214 -514 24 -102 48 -145 97 -177 41 -28 45 -28 232 -33 l191
-5 0 -185 0 -185 -190 -5 c-150 -4 -196 -9 -220 -22 -58 -31 -83 -74 -110
-188 -41 -172 -107 -330 -205 -495 -56 -93 -72 -146 -61 -195 12 -55 22 -67
150 -195 67 -66 121 -126 121 -135 0 -19 -240 -260 -259 -260 -8 0 -74 58
-146 129 -179 178 -204 184 -370 86 -178 -104 -318 -163 -504 -210 -116 -29
-148 -47 -183 -103 -21 -34 -23 -50 -28 -227 l-5 -190 -185 0 -185 0 -5 190
c-4 154 -8 196 -22 221 -29 53 -71 80 -160 103 -208 53 -372 120 -526 213
-167 101 -198 94 -377 -83 -72 -71 -135 -129 -140 -129 -12 0 -265 252 -265
264 0 5 58 68 129 140 179 183 185 207 85 377 -93 157 -160 316 -199 469 -9
36 -21 82 -26 102 -11 44 -50 92 -93 116 -25 14 -67 18 -221 22 l-190 5 0 185
0 185 190 5 c210 6 233 12 279 72 15 20 35 74 51 138 47 185 108 333 205 495
103 171 96 201 -81 380 -71 72 -129 137 -129 145 0 19 240 260 259 260 8 0 74
-58 146 -129 178 -177 209 -184 376 -83 173 103 321 164 518 212 77 19 100 29
131 59 52 49 60 88 60 282 0 91 3 169 7 173 4 3 88 5 187 4 l181 -3 5 -190z"/>
<path d="M2381 3586 c-330 -63 -601 -268 -751 -566 -200 -400 -122 -870 197
-1194 154 -155 344 -253 566 -292 115 -20 297 -14 412 15 376 93 672 390 768
771 31 122 31 358 0 480 -96 381 -392 678 -768 771 -106 27 -322 34 -424 15z
m341 -365 c484 -124 680 -702 369 -1087 -308 -384 -919 -320 -1136 118 -101
205 -101 411 0 616 138 279 466 430 767 353z"/>
</g>
</svg>
