<svg width="34" height="31" viewBox="0 0 34 31" fill="none" xmlns="http://www.w3.org/2000/svg">
<g filter="url(#filter0_d_72_18)">
<path d="M33.4612 3.92278C32.2903 4.44162 31.0325 4.79218 29.7102 4.95063C31.0746 4.13423 32.0953 2.84932 32.582 1.33564C31.3001 2.09704 29.8972 2.63299 28.4341 2.92018C27.4503 1.86971 26.1472 1.17344 24.7271 0.939468C23.3069 0.7055 21.8493 0.946924 20.5805 1.62626C19.3116 2.30559 18.3026 3.38483 17.71 4.69641C17.1173 6.00799 16.9743 7.47853 17.3031 8.87973C14.7057 8.74931 12.1647 8.07421 9.84514 6.89822C7.52554 5.72223 5.47913 4.07165 3.83872 2.05359C3.27782 3.02114 2.9553 4.14294 2.9553 5.33765C2.95468 6.41317 3.21953 7.47221 3.72637 8.42082C4.23321 9.36942 4.96635 10.1783 5.86076 10.7756C4.82348 10.7426 3.80909 10.4623 2.90202 9.95806V10.0422C2.90191 11.5506 3.4237 13.0127 4.37884 14.1802C5.33398 15.3478 6.66365 16.1489 8.14222 16.4477C7.17997 16.7081 6.17113 16.7464 5.19189 16.5598C5.60905 17.8578 6.42165 18.9928 7.51593 19.8059C8.6102 20.6191 9.93137 21.0697 11.2945 21.0947C8.98053 22.9112 6.12282 23.8965 3.18106 23.8922C2.65996 23.8923 2.1393 23.8619 1.62177 23.801C4.60782 25.721 8.0838 26.7399 11.6338 26.7359C23.6511 26.7359 30.2206 16.7828 30.2206 8.15056C30.2206 7.87011 30.2136 7.58686 30.201 7.30641C31.4788 6.38229 32.5819 5.23795 33.4584 3.92699L33.4612 3.92278Z" fill="#F8F8F8"/>
</g>
<defs>
<filter id="filter0_d_72_18" x="-2.37823" y="0.852539" width="39.8394" height="33.8833" filterUnits="userSpaceOnUse" color-interpolation-filters="sRGB">
<feFlood flood-opacity="0" result="BackgroundImageFix"/>
<feColorMatrix in="SourceAlpha" type="matrix" values="0 0 0 0 0 0 0 0 0 0 0 0 0 0 0 0 0 0 127 0" result="hardAlpha"/>
<feOffset dy="4"/>
<feGaussianBlur stdDeviation="2"/>
<feComposite in2="hardAlpha" operator="out"/>
<feColorMatrix type="matrix" values="0 0 0 0 0 0 0 0 0 0 0 0 0 0 0 0 0 0 0.25 0"/>
<feBlend mode="normal" in2="BackgroundImageFix" result="effect1_dropShadow_72_18"/>
<feBlend mode="normal" in="SourceGraphic" in2="effect1_dropShadow_72_18" result="shape"/>
</filter>
</defs>
</svg>
